{"title":"Land of the Lost(2009) [Hindi] BY [-=R@J=-] DVDRip","uid":6568936,"size":732449784,"categoryP":"video","categoryS":"hd___movies","magnet":"?xt=urn:btih:227ffed4171cf12ff39d706125a41fe631253cbb&amp;dn=Land+of+the+Lost%282009%29+%5BHindi%5D+BY+%5B-%3DR%40J%3D-%5D+DVDRip&amp;tr=udp%3A%2F%2Ftracker.openbittorrent.com%3A80&amp;tr=udp%3A%2F%2Fopen.demonii.com%3A1337&amp;tr=udp%3A%2F%2Ftracker.coppersurfer.tk%3A6969&amp;tr=udp%3A%2F%2Fexodus.desync.com%3A6969","seeders":0,"leechers":1,"uploader":"kaushal77","files":2,"time":1311859011,"description":"\n\n\n\n                              BY-- [RAJ-- releaser]\n\n\nGeneral\nUnique ID                        : 250989836624102634819018038963007462846 (0xBCD2E25B876D8EA3ACEE2A7FE1591DBE)\n\nComplete name                    : Land of the Lost(2009) [Hindi]-DVDRip-BY [-=R@J=-] XviD.mkv\nFormat                           : Matroska\nFile size                        : 699 MiB\nDuration                         : 1h 37mn\nOverall bit rate                 : 1 003 Kbps\nEncoded date                     : UTC 2011-03-07 09:08:05\nWriting application              : mkvmerge v2.2.0 ('Turn It On Again') built on Mar  4 2008 13:20:25\nWriting library                  : libebml v0.7.7 + libmatroska v0.8.1\n\nVideo\nID                               : 1\nFormat                           : MPEG-4 Visual\nFormat profile                   : Advanced Simple@L5\nFormat settings, BVOP            : Yes\nFormat settings, QPel            : No\nFormat settings, GMC             : No warppoints\nFormat settings, Matrix          : Default (H.263)\nCodec ID                         : XVID\nCodec ID/Hint                    : XviD\nDuration                         : 1h 37mn\nBit rate                         : 887 Kbps\nWidth                            : 608 pixels\nHeight                           : 384 pixels\nDisplay aspect ratio             : 1.583\nFrame rate                       : 25.000 fps\nColor space                      : YUV\nChroma subsampling               : 4:2:0\nBit depth                        : 8 bits\nScan type                        : Progressive\nCompression mode                 : Lossy\nBits/(Pixel*Frame)               : 0.152\nStream size                      : 618 MiB (88%)\nWriting library                  : XviD 1.2.1 (UTC 2008-12-04)\n\nAudio\nID                               : 2\nFormat                           : MPEG Audio\nFormat version                   : Version 1\nFormat profile                   : Layer 3\nMode                             : Joint stereo\nMode extension                   : MS Stereo\nCodec ID                         : A_MPEG/L3\nCodec ID/Hint                    : MP3\nDuration                         : 1h 37mn\nBit rate mode                    : Constant\nBit rate                         : 96.0 Kbps\nChannel(s)                       : 2 channels\nSampling rate                    : 32.0 KHz\nCompression mode                 : Lossy\nStream size                      : 66.9 MiB (10%)\nTitle                            : Hindi by Raj\nWriting library                  : LAME3.98r\nEncoding settings                : -m j -V 4 -q 2 -lowpass 15.1 -b 96\n\n","torrent":{"xt":"urn:btih:227ffed4171cf12ff39d706125a41fe631253cbb","amp;dn":"Land+of+the+Lost%282009%29+%5BHindi%5D+BY+%5B-%3DR%40J%3D-%5D+DVDRip","amp;tr":["udp%3A%2F%2Ftracker.openbittorrent.com%3A80","udp%3A%2F%2Fopen.demonii.com%3A1337","udp%3A%2F%2Ftracker.coppersurfer.tk%3A6969","udp%3A%2F%2Fexodus.desync.com%3A6969"],"infoHash":"227ffed4171cf12ff39d706125a41fe631253cbb","infoHashBuffer":{"type":"Buffer","data":[34,127,254,212,23,28,241,47,243,157,112,97,37,164,31,230,49,37,60,187]},"announce":[],"urlList":[]}}